<svg width="512" height="512" xmlns="http://www.w3.org/2000/svg" viewBox="0 0 128 128"><rect width="124" height="124" x="2" y="2" fill="#363d52" stroke="#212532" stroke-width="4" rx="14"/><path fill="#478cbf" d="M54.44 20.1a57.59 57.59 0 0 0-12.424 4.242 88.4 88.4 0 0 0 .808 10.3 46.913 46.913 0 0 0-8.889 6.465 56.044 56.044 0 0 0-8.28-4.748 57.328 57.328 0 0 0-8.384 10.909 98.072 98.072 0 0 0 5.657 8.181v32.117c0 13.938 20.527 20.907 41.068 20.907 20.54 0 41.094-6.969 41.145-20.907V55.45a98.165 98.165 0 0 0 5.656-8.181 57.345 57.345 0 0 0-8.383-10.909 56.05 56.05 0 0 0-8.281 4.748 46.91 46.91 0 0 0-8.889-6.464 88.41 88.41 0 0 0 .809-10.301A57.589 57.589 0 0 0 73.629 20.1a75.645 75.645 0 0 0-4.647 8.988 34.926 34.926 0 0 0-9.896 0A75.644 75.644 0 0 0 54.44 20.1Z"/><g fill="#fff"><path d="M22.928 78.736v4.516h17.531v5.074a2.257 2.257 0 0 0 2.262 2.262 2.257 2.257 0 0 0 2.261-2.262v-7.375a2.209 2.209 0 0 0-2.212-2.215H22.928zm28.941 0a2.207 2.207 0 0 0-2.205 2.041c-.004.058-.01.116-.01.174v.02c0 .013-.004.026-.004.039v7.316a2.257 2.257 0 0 0 2.262 2.262 2.257 2.257 0 0 0 2.262-2.262v-5.074h19.65v5.074a2.257 2.257 0 0 0 2.262 2.262 2.259 2.259 0 0 0 2.264-2.262v-7.375a2.21 2.21 0 0 0-2.215-2.215H51.869zm33.365 0a2.207 2.207 0 0 0-2.205 2.041c-.004.058-.01.116-.01.174v.02l-.001.039v7.316a2.257 2.257 0 0 0 2.261 2.262 2.257 2.257 0 0 0 2.262-2.262v-5.074h17.6v-4.516H85.234zM35.23 86.78a2.257 2.257 0 0 0-2.261 2.262v7.316l.002.04v.019c0 .058.005.117.01.174a2.207 2.207 0 0 0 2.205 2.04h24.267a2.209 2.209 0 0 0 2.213-2.214v-7.375a2.257 2.257 0 0 0-2.262-2.262 2.257 2.257 0 0 0-2.261 2.262v5.074h-19.65v-5.074a2.257 2.257 0 0 0-2.263-2.262zm33.366 0a2.257 2.257 0 0 0-2.262 2.262v7.316l.002.04v.019c0 .058.005.117.01.174a2.207 2.207 0 0 0 2.205 2.04h24.267a2.209 2.209 0 0 0 2.213-2.214v-7.375a2.257 2.257 0 0 0-2.261-2.262 2.257 2.257 0 0 0-2.262 2.262v5.074h-19.65v-5.074a2.257 2.257 0 0 0-2.262-2.262zm-7.491-13.858c0 3.434 5.858 3.434 5.858 0v-8.686c0-3.434-5.858-3.434-5.858 0Z"/><circle cx="42.521" cy="65.448" r="9.09"/><circle cx="85.547" cy="65.448" r="9.09"/></g><g fill="#414042"><circle cx="43.329" cy="66.054" r="6.06"/><circle cx="84.739" cy="66.054" r="6.06"/></g></svg>
